<mxfile host="app.diagrams.net" agent="Mozilla/5.0 (X11; Ubuntu; Linux x86_64; rv:141.0) Gecko/20100101 Firefox/141.0" version="28.1.1">
  <diagram name="Architecture Overview" id="zv5mNBYRA_9N9KjFfrry">
    <mxGraphModel dx="751" dy="517" grid="1" gridSize="10" guides="1" tooltips="1" connect="1" arrows="1" fold="1" page="1" pageScale="1" pageWidth="827" pageHeight="1169" math="0" shadow="0">
      <root>
        <mxCell id="0" />
        <mxCell id="1" parent="0" />
        <mxCell id="F760K89HmBeSuGGmcfon-67" style="edgeStyle=orthogonalEdgeStyle;rounded=0;orthogonalLoop=1;jettySize=auto;html=1;exitX=1;exitY=0.5;exitDx=0;exitDy=0;dashed=1;" edge="1" parent="1" source="F760K89HmBeSuGGmcfon-30" target="F760K89HmBeSuGGmcfon-48">
          <mxGeometry relative="1" as="geometry" />
        </mxCell>
        <mxCell id="F760K89HmBeSuGGmcfon-30" value="Terraform Bootstrap" style="swimlane" vertex="1" parent="1">
          <mxGeometry x="270" y="800" width="300" height="160" as="geometry" />
        </mxCell>
        <mxCell id="F760K89HmBeSuGGmcfon-75" value="" style="sketch=0;points=[[0,0,0],[0.25,0,0],[0.5,0,0],[0.75,0,0],[1,0,0],[0,1,0],[0.25,1,0],[0.5,1,0],[0.75,1,0],[1,1,0],[0,0.25,0],[0,0.5,0],[0,0.75,0],[1,0.25,0],[1,0.5,0],[1,0.75,0]];outlineConnect=0;fontColor=#232F3E;fillColor=#7AA116;strokeColor=#ffffff;dashed=0;verticalLabelPosition=bottom;verticalAlign=top;align=center;html=1;fontSize=12;fontStyle=0;aspect=fixed;shape=mxgraph.aws4.resourceIcon;resIcon=mxgraph.aws4.s3;" vertex="1" parent="F760K89HmBeSuGGmcfon-30">
          <mxGeometry x="60" y="50" width="60" height="60" as="geometry" />
        </mxCell>
        <mxCell id="F760K89HmBeSuGGmcfon-76" value="" style="sketch=0;points=[[0,0,0],[0.25,0,0],[0.5,0,0],[0.75,0,0],[1,0,0],[0,1,0],[0.25,1,0],[0.5,1,0],[0.75,1,0],[1,1,0],[0,0.25,0],[0,0.5,0],[0,0.75,0],[1,0.25,0],[1,0.5,0],[1,0.75,0]];outlineConnect=0;fontColor=#232F3E;fillColor=#C925D1;strokeColor=#ffffff;dashed=0;verticalLabelPosition=bottom;verticalAlign=top;align=center;html=1;fontSize=12;fontStyle=0;aspect=fixed;shape=mxgraph.aws4.resourceIcon;resIcon=mxgraph.aws4.dynamodb;" vertex="1" parent="F760K89HmBeSuGGmcfon-30">
          <mxGeometry x="160" y="50" width="60" height="60" as="geometry" />
        </mxCell>
        <mxCell id="F760K89HmBeSuGGmcfon-77" value="S3 Bucket" style="text;whiteSpace=wrap;html=1;" vertex="1" parent="F760K89HmBeSuGGmcfon-30">
          <mxGeometry x="59" y="120" width="70" height="30" as="geometry" />
        </mxCell>
        <mxCell id="F760K89HmBeSuGGmcfon-78" value="DynamoDB" style="text;whiteSpace=wrap;html=1;" vertex="1" parent="F760K89HmBeSuGGmcfon-30">
          <mxGeometry x="157" y="120" width="70" height="30" as="geometry" />
        </mxCell>
        <mxCell id="F760K89HmBeSuGGmcfon-68" style="edgeStyle=orthogonalEdgeStyle;rounded=0;orthogonalLoop=1;jettySize=auto;html=1;exitX=1;exitY=0.5;exitDx=0;exitDy=0;dashed=1;endArrow=none;endFill=0;" edge="1" parent="1" source="F760K89HmBeSuGGmcfon-46" target="F760K89HmBeSuGGmcfon-48">
          <mxGeometry relative="1" as="geometry" />
        </mxCell>
        <mxCell id="F760K89HmBeSuGGmcfon-46" value="GitHub Actions CI/CD" style="swimlane;strokeColor=light-dark(#000000,#67AB9F);" vertex="1" parent="1">
          <mxGeometry x="270" y="1020" width="300" height="160" as="geometry" />
        </mxCell>
        <mxCell id="F760K89HmBeSuGGmcfon-47" value="Terraform fmt&lt;br&gt;Terraform validate&lt;br&gt;Terraform Init&lt;br&gt;Terraform Plan&lt;br&gt;Terraform Apply" style="text;html=1;whiteSpace=wrap;rounded=1;" vertex="1" parent="F760K89HmBeSuGGmcfon-46">
          <mxGeometry x="95" y="40" width="110" height="40" as="geometry" />
        </mxCell>
        <mxCell id="F760K89HmBeSuGGmcfon-48" value="AWS Cloud" style="points=[[0,0],[0.25,0],[0.5,0],[0.75,0],[1,0],[1,0.25],[1,0.5],[1,0.75],[1,1],[0.75,1],[0.5,1],[0.25,1],[0,1],[0,0.75],[0,0.5],[0,0.25]];outlineConnect=0;gradientColor=none;html=1;whiteSpace=wrap;fontSize=12;fontStyle=0;container=0;pointerEvents=0;collapsible=0;recursiveResize=0;shape=mxgraph.aws4.group;grIcon=mxgraph.aws4.group_aws_cloud_alt;strokeColor=light-dark(#212C38,#212C38);fillColor=none;verticalAlign=top;align=left;spacingLeft=30;fontColor=#232F3E;dashed=0;" vertex="1" parent="1">
          <mxGeometry x="620" y="800" width="460" height="380" as="geometry" />
        </mxCell>
        <mxCell id="F760K89HmBeSuGGmcfon-74" value="" style="edgeStyle=orthogonalEdgeStyle;rounded=0;orthogonalLoop=1;jettySize=auto;html=1;endArrow=none;endFill=0;dashed=1;" edge="1" parent="1" source="F760K89HmBeSuGGmcfon-70" target="F760K89HmBeSuGGmcfon-55">
          <mxGeometry relative="1" as="geometry" />
        </mxCell>
        <mxCell id="F760K89HmBeSuGGmcfon-70" value="" style="sketch=0;outlineConnect=0;fontColor=#232F3E;gradientColor=none;strokeColor=#232F3E;fillColor=none;dashed=0;verticalLabelPosition=bottom;verticalAlign=top;align=center;html=1;fontSize=12;fontStyle=0;aspect=fixed;shape=mxgraph.aws4.resourceIcon;resIcon=mxgraph.aws4.internet_alt1;" vertex="1" parent="1">
          <mxGeometry x="1100" y="971" width="60" height="60" as="geometry" />
        </mxCell>
        <mxCell id="F760K89HmBeSuGGmcfon-73" value="" style="group" vertex="1" connectable="0" parent="1">
          <mxGeometry x="640" y="850" width="370" height="300" as="geometry" />
        </mxCell>
        <mxCell id="F760K89HmBeSuGGmcfon-34" value="VPC" style="points=[[0,0],[0.25,0],[0.5,0],[0.75,0],[1,0],[1,0.25],[1,0.5],[1,0.75],[1,1],[0.75,1],[0.5,1],[0.25,1],[0,1],[0,0.75],[0,0.5],[0,0.25]];outlineConnect=0;gradientColor=none;html=1;whiteSpace=wrap;fontSize=12;fontStyle=0;container=1;pointerEvents=0;collapsible=0;recursiveResize=0;shape=mxgraph.aws4.group;grIcon=mxgraph.aws4.group_vpc2;strokeColor=light-dark(#228711,#228711);fillColor=none;verticalAlign=top;align=left;spacingLeft=30;fontColor=#AAB7B8;dashed=0;movable=1;resizable=1;rotatable=1;deletable=1;editable=1;locked=0;connectable=1;" vertex="1" parent="F760K89HmBeSuGGmcfon-73">
          <mxGeometry width="370" height="300" as="geometry" />
        </mxCell>
        <mxCell id="F760K89HmBeSuGGmcfon-72" value="" style="group" vertex="1" connectable="0" parent="F760K89HmBeSuGGmcfon-73">
          <mxGeometry y="32" width="370" height="230" as="geometry" />
        </mxCell>
        <mxCell id="F760K89HmBeSuGGmcfon-50" value="Public subnet" style="points=[[0,0],[0.25,0],[0.5,0],[0.75,0],[1,0],[1,0.25],[1,0.5],[1,0.75],[1,1],[0.75,1],[0.5,1],[0.25,1],[0,1],[0,0.75],[0,0.5],[0,0.25]];outlineConnect=0;gradientColor=none;html=1;whiteSpace=wrap;fontSize=12;fontStyle=0;container=1;pointerEvents=0;collapsible=0;recursiveResize=0;shape=mxgraph.aws4.group;grIcon=mxgraph.aws4.group_security_group;grStroke=0;strokeColor=light-dark(#7AA116,#17720C);fillColor=light-dark(#F2F6E8,#EAF3E7);verticalAlign=top;align=left;spacingLeft=30;fontColor=#248814;dashed=0;" vertex="1" parent="F760K89HmBeSuGGmcfon-72">
          <mxGeometry x="50" y="41" width="280" height="160" as="geometry" />
        </mxCell>
        <mxCell id="F760K89HmBeSuGGmcfon-60" value="" style="sketch=0;outlineConnect=0;fontColor=#232F3E;gradientColor=none;fillColor=#8C4FFF;strokeColor=none;dashed=0;verticalLabelPosition=bottom;verticalAlign=top;align=center;html=1;fontSize=12;fontStyle=0;aspect=fixed;pointerEvents=1;shape=mxgraph.aws4.route_table;" vertex="1" parent="F760K89HmBeSuGGmcfon-50">
          <mxGeometry x="40" y="44" width="78" height="76" as="geometry" />
        </mxCell>
        <mxCell id="F760K89HmBeSuGGmcfon-54" value="" style="sketch=0;points=[[0,0,0],[0.25,0,0],[0.5,0,0],[0.75,0,0],[1,0,0],[0,1,0],[0.25,1,0],[0.5,1,0],[0.75,1,0],[1,1,0],[0,0.25,0],[0,0.5,0],[0,0.75,0],[1,0.25,0],[1,0.5,0],[1,0.75,0]];outlineConnect=0;fontColor=#232F3E;fillColor=#ED7100;strokeColor=light-dark(#F2F6E8,#EAF3E7);dashed=0;verticalLabelPosition=bottom;verticalAlign=top;align=center;html=1;fontSize=12;fontStyle=0;aspect=fixed;shape=mxgraph.aws4.resourceIcon;resIcon=mxgraph.aws4.ec2;" vertex="1" parent="F760K89HmBeSuGGmcfon-50">
          <mxGeometry x="160" y="44" width="68" height="68" as="geometry" />
        </mxCell>
        <mxCell id="F760K89HmBeSuGGmcfon-63" value="Route Table" style="text;whiteSpace=wrap;html=1;fontColor=light-dark(#000000,#000000);" vertex="1" parent="F760K89HmBeSuGGmcfon-50">
          <mxGeometry x="44" y="120" width="70" height="30" as="geometry" />
        </mxCell>
        <mxCell id="F760K89HmBeSuGGmcfon-62" value="EC2 + Docker + NGINX" style="text;whiteSpace=wrap;html=1;fontColor=light-dark(#000000,#000000);" vertex="1" parent="F760K89HmBeSuGGmcfon-50">
          <mxGeometry x="129" y="120" width="130" height="30" as="geometry" />
        </mxCell>
        <mxCell id="F760K89HmBeSuGGmcfon-57" value="" style="container=1;collapsible=0;expand=0;recursiveResize=0;html=1;whiteSpace=wrap;strokeColor=#FA4D56;fillColor=none;dashed=1;dashPattern=1 3;strokeWidth=2" vertex="1" parent="F760K89HmBeSuGGmcfon-72">
          <mxGeometry width="370" height="230" as="geometry" />
        </mxCell>
        <mxCell id="F760K89HmBeSuGGmcfon-58" value="Security Group" style="shape=rect;fillColor=none;aspect=fixed;resizable=0;labelPosition=right;verticalLabelPosition=middle;align=left;verticalAlign=middle;strokeColor=none;part=1;spacingLeft=5;fontSize=14;" vertex="1" parent="F760K89HmBeSuGGmcfon-57">
          <mxGeometry width="48" height="48" relative="1" as="geometry" />
        </mxCell>
        <mxCell id="F760K89HmBeSuGGmcfon-59" value="" style="fillColor=#FA4D56;shape=mxgraph.ibm_cloud.group--security;strokeColor=none;dashed=0;outlineConnect=0;html=1;labelPosition=center;verticalLabelPosition=bottom;verticalAlign=top;part=1;movable=0;resizable=0;rotatable=0;" vertex="1" parent="F760K89HmBeSuGGmcfon-58">
          <mxGeometry width="24" height="24" relative="1" as="geometry">
            <mxPoint x="12" y="12" as="offset" />
          </mxGeometry>
        </mxCell>
        <mxCell id="F760K89HmBeSuGGmcfon-65" value="Security Group (SSH/HTTP)" style="text;whiteSpace=wrap;html=1;" vertex="1" parent="F760K89HmBeSuGGmcfon-57">
          <mxGeometry x="100" y="200" width="180" height="40" as="geometry" />
        </mxCell>
        <mxCell id="F760K89HmBeSuGGmcfon-55" value="" style="sketch=0;outlineConnect=0;fontColor=#232F3E;gradientColor=none;fillColor=#8C4FFF;strokeColor=none;dashed=0;verticalLabelPosition=bottom;verticalAlign=top;align=center;html=1;fontSize=12;fontStyle=0;aspect=fixed;pointerEvents=1;shape=mxgraph.aws4.internet_gateway;" vertex="1" parent="F760K89HmBeSuGGmcfon-57">
          <mxGeometry x="335" y="84" width="70" height="70" as="geometry" />
        </mxCell>
        <mxCell id="F760K89HmBeSuGGmcfon-64" value="Internet Gateway" style="text;whiteSpace=wrap;html=1;fontColor=light-dark(#000000,#000000);" vertex="1" parent="F760K89HmBeSuGGmcfon-57">
          <mxGeometry x="332" y="162" width="100" height="30" as="geometry" />
        </mxCell>
      </root>
    </mxGraphModel>
  </diagram>
</mxfile>
